<svg version="1.1" xmlns="http://www.w3.org/2000/svg" xmlns:xlink="http://www.w3.org/1999/xlink" 
width="1000px" height="1000px" viewBox="0,0,256,256"><g fill="none" fill-rule="nonzero" stroke="none" stroke-width="1" stroke-linecap="none" stroke-linejoin="none" stroke-miterlimit="10" stroke-dasharray="" stroke-dashoffset="0" font-family="none" font-weight="none" font-size="none" text-anchor="none" style="mix-blend-mode: normal"><g transform="scale(2.56,2.56)"><circle cx="50" cy="50" r="36.5" fill-opacity="0.43922" fill="#c882ff" stroke="none" stroke-linecap="butt" stroke-linejoin="miter"></circle><path d="M49.632,54.219c0,0 9.335,-3.596 3.626,-10.352c-5.728,-6.779 2.26,-11.719 7.41,-7.41c7.134,5.969 4.94,14.294 13.873,19.549c6.309,3.711 12.927,4.099 12.927,4.099" fill="none" stroke="#231f20" stroke-linecap="round" stroke-linejoin="round"></path><path d="M41.75,51.277c-0.21,-2.838 1.009,-5.677 5.045,-6.411c5.78,-1.051 4.94,-10.09 -1.787,-9.984c-6.726,0.105 -16.816,10.09 -13.137,21.23" fill="none" stroke="#231f20" stroke-linecap="round" stroke-linejoin="round"></path><path d="M48.266,59.054c1.471,-1.576 3.446,-7.227 -4.414,-7.672c-7.252,-0.411 -11.561,4.204 -13.032,6.937c-1.471,2.733 -0.745,8.128 3.277,9.182" fill="none" stroke="#231f20" stroke-linecap="round" stroke-linejoin="round"></path><path d="M41.119,69.984c0,0 4.681,0.036 7.567,-1.366c3.678,-1.787 5.045,-9.459 -2.838,-9.669c-7.882,-0.21 -13.558,6.201 -11.141,13.768c2.417,7.567 16.606,15.029 35.629,18.077" fill="none" stroke="#231f20" stroke-linecap="round" stroke-linejoin="round"></path><path d="M60.354,14.047c-1.145,0 -2.373,0.235 -3.549,0.568c1.149,-0.618 2.268,-1.356 3.131,-2.22c2.883,-2.883 -1.48,-7.09 -4.441,-4.129c-0.81,0.81 -1.511,1.844 -2.108,2.912c0.376,-1.249 0.645,-2.562 0.645,-3.784c0,-4.077 -6.06,-3.966 -6.06,0.22c0,1.145 0.235,2.373 0.568,3.549c-0.618,-1.149 -1.356,-2.268 -2.22,-3.131c-2.883,-2.883 -7.09,1.48 -4.129,4.441c0.81,0.81 1.844,1.511 2.912,2.108c-1.249,-0.376 -2.562,-0.645 -3.784,-0.645c-4.077,0 -3.966,6.06 0.22,6.06c1.145,0 2.373,-0.235 3.549,-0.568c-1.149,0.618 -2.267,1.356 -3.131,2.22c-2.883,2.883 1.48,7.09 4.441,4.129c0.81,-0.81 1.511,-1.844 2.108,-2.912c-0.376,1.249 -0.645,2.562 -0.645,3.784c0,4.077 6.06,3.966 6.06,-0.22c0,-1.145 -0.235,-2.373 -0.568,-3.549c0.618,1.149 1.356,2.268 2.22,3.131c2.883,2.883 7.09,-1.48 4.129,-4.441c-0.81,-0.81 -1.844,-1.511 -2.912,-2.108c1.249,0.376 2.562,0.645 3.784,0.645c4.077,0 3.966,-6.06 -0.22,-6.06z" fill="none" stroke="#231f20" stroke-linecap="round" stroke-linejoin="round"></path><circle cx="50.916" cy="16.858" r="3.713" fill="none" stroke="#231f20" stroke-linecap="round" stroke-linejoin="round"></circle><path d="M50.947,47.202v-17.436" fill="none" stroke="#231f20" stroke-linecap="round" stroke-linejoin="round"></path></g></g></svg>												
